<svg width="24" height="24" viewBox="0 0 24 24" fill="none" xmlns="http://www.w3.org/2000/svg">
<g clip-path="url(#clip0_2042_2)">
<path d="M12.3532 0.046875C12.3703 0.0630008 12.3583 0.0913992 12.3619 0.0935166C12.9887 0.464474 13.3978 1.07352 13.9409 1.53402C14.2372 1.78516 14.549 2.04232 14.8974 2.20065C15.2435 2.35793 15.6404 2.43935 16.0222 2.47334C16.526 2.51818 17.0371 2.47411 17.5445 2.48862C17.8039 2.49604 18.0651 2.53223 18.3196 2.5841C18.5572 2.63253 18.7097 2.79832 18.7473 3.04091C18.7895 3.31365 18.8309 3.5888 18.8396 3.86396C18.8546 4.33222 18.8388 4.80138 18.8449 5.27004C18.855 6.04799 19.1165 6.7242 19.675 7.2772C19.999 7.59797 20.3254 7.91649 20.6403 8.24603C20.81 8.42359 20.9645 8.61694 21.1135 8.8126C21.3515 9.12516 21.3486 9.45947 21.125 9.76962C20.9651 9.99135 20.7654 10.1854 20.5758 10.3845C20.049 10.9378 19.4151 11.4102 19.114 12.1395C18.9709 12.4862 18.883 12.8718 18.8549 13.2461C18.8123 13.8132 18.8485 14.3859 18.8408 14.9561C18.8385 15.124 18.8157 15.295 18.7764 15.4583C18.6526 15.9733 18.3729 16.0476 17.9108 16.0721C17.4113 16.0986 16.9082 16.0576 16.4087 16.0837C15.8668 16.112 15.3112 16.1276 14.8238 16.4093C14.554 16.5653 14.2908 16.746 14.0614 16.9559C13.6584 17.3246 13.2931 17.7345 12.8926 18.1062C12.7166 18.2695 12.5025 18.3996 12.2883 18.5115C12.0576 18.6321 11.8183 18.5701 11.6144 18.4281C11.426 18.2968 11.2499 18.1456 11.0795 17.991C10.5402 17.5019 10.0948 16.9132 9.46831 16.5148C9.12187 16.2945 8.74204 16.1801 8.35113 16.1348C7.88223 16.0804 7.4054 16.0955 6.93211 16.0777C6.58291 16.0646 6.23264 16.0599 5.88517 16.027C5.63158 16.0029 5.43293 15.8648 5.36784 15.6054C5.31227 15.3839 5.26189 15.1554 5.25522 14.9286C5.23914 14.3822 5.25885 13.8349 5.24778 13.2882C5.23363 12.5893 5.01275 11.9624 4.5296 11.4467C4.09599 10.9838 3.64426 10.5379 3.21106 10.0746C2.93198 9.77619 2.67292 9.44302 2.86929 9.00713C2.97361 8.77558 3.14877 8.56701 3.32455 8.37846C3.67592 8.00157 4.05234 7.64815 4.41369 7.2804C4.96585 6.71846 5.25056 6.04409 5.25006 5.25301C5.24975 4.75302 5.2397 4.25272 5.25432 3.75316C5.26168 3.50165 5.29771 3.24786 5.35129 3.00174C5.40023 2.77698 5.55796 2.62139 5.78928 2.58225C6.0611 2.53627 6.33665 2.49732 6.61164 2.4885C7.0799 2.47348 7.54933 2.49558 8.01766 2.48172C8.70343 2.46142 9.33138 2.26628 9.85023 1.79643C10.1383 1.5356 10.4148 1.26211 10.6991 0.997008C11.0326 0.6859 11.3689 0.377707 11.6879 0.0575628C11.8917 0.046875 12.1115 0.046875 12.3532 0.046875ZM12.2546 4.21874C11.863 4.24977 11.4636 4.24205 11.0811 4.31863C9.54858 4.62546 8.39665 5.47655 7.64394 6.84436C7.06813 7.89073 6.88902 9.01016 7.125 10.1878C7.38524 11.4865 8.04725 12.5295 9.11706 13.3127C10.2595 14.1492 11.5451 14.4293 12.9205 14.1915C14.2166 13.9674 15.2737 13.3076 16.0584 12.232C17.0647 10.8527 17.3208 9.34348 16.824 7.7181C16.4975 6.64953 15.8601 5.78042 14.9482 5.13734C14.1597 4.58132 13.2768 4.25448 12.2546 4.21874Z" fill="#3ECF8E"/>
<path d="M7.28751 24.0468C7.26117 24.0185 7.26716 23.9765 7.25071 23.964C6.97375 23.7537 6.92984 23.4697 6.93199 23.1396C6.94361 21.3522 6.9375 19.5647 6.9375 17.7772C6.9375 17.6919 6.9375 17.6066 6.9375 17.4923C7.6019 17.4231 8.27215 17.3428 8.8522 17.7305C9.19851 17.962 9.4683 18.3085 9.77049 18.6053C10.3419 19.1666 10.9023 19.7527 11.737 19.9039C12.2401 19.995 12.7088 19.8565 13.147 19.5966C13.8105 19.2031 14.2795 18.6005 14.8139 18.068C15.1925 17.6907 15.6159 17.4353 16.1819 17.4798C16.4986 17.5047 16.8189 17.4843 17.1562 17.4843C17.1562 17.5929 17.1562 17.6773 17.1562 17.7618C17.1562 19.5103 17.1477 21.2588 17.1627 23.0071C17.1662 23.4064 17.131 23.7625 16.8121 24.0365C16.5927 24.0468 16.3573 24.0468 16.1159 24.034C16.0948 24.0035 16.0831 23.9774 16.0639 23.9692C14.8152 23.437 13.5644 22.9098 12.3182 22.3721C12.1127 22.2834 11.9435 22.3059 11.7436 22.3925C10.5251 22.9203 9.30071 23.4343 8.07956 23.9559C8.0506 23.9683 8.0366 24.0157 8.01562 24.0468C7.78021 24.0468 7.5448 24.0468 7.28751 24.0468Z" fill="#3ECF8E"/>
<path d="M10.4251 12.5504C9.4863 12.0243 8.81071 11.2975 8.53047 10.2574C8.21424 9.08372 8.39931 7.99518 9.13527 7.01261C9.67382 6.29359 10.3874 5.82832 11.2586 5.65061C12.3391 5.43021 13.3509 5.62432 14.2469 6.3015C14.9886 6.86201 15.4621 7.59992 15.6396 8.50761C15.8184 9.42168 15.6782 10.2991 15.2056 11.1094C14.8556 11.7094 14.3614 12.1758 13.7535 12.499C13.308 12.7358 12.8266 12.8818 12.3059 12.8966C11.6563 12.9152 11.0319 12.8414 10.4251 12.5504ZM13.8707 7.95189C13.4533 7.60759 13.1043 7.69234 12.7683 8.0633C12.5275 8.32906 12.263 8.5734 12.0091 8.82726C11.6068 9.22956 11.606 9.23031 11.198 8.82994C10.923 8.5602 10.5798 8.57788 10.3257 8.77721C10.0177 9.01887 9.94188 9.39764 10.1829 9.68142C10.4788 10.0299 10.7923 10.3691 11.1349 10.6706C11.4543 10.9517 11.8186 10.9173 12.1249 10.5943C12.6726 10.0169 13.2368 9.45402 13.8145 8.90665C14.0639 8.67036 14.1296 8.26199 13.8707 7.95189Z" fill="#3ECF8E"/>
</g>
<defs>
<clipPath id="clip0_2042_2">
<rect width="24" height="24" fill="white"/>
</clipPath>
</defs>
</svg>
