<svg width="160" height="160" viewBox="0 0 160 160" fill="none" xmlns="http://www.w3.org/2000/svg">
<g clip-path="url(#clip0_2038_16097)">
<path d="M82.3543 0.3125C82.4686 0.420005 82.3888 0.609328 82.4126 0.623444C86.5916 3.09649 89.3184 7.15677 92.9396 10.2268C94.9145 11.9011 96.993 13.6154 99.3159 14.671C101.623 15.7195 104.269 16.2623 106.815 16.4889C110.174 16.7879 113.581 16.4941 116.964 16.5908C118.692 16.6403 120.434 16.8815 122.131 17.2274C123.715 17.5502 124.731 18.6555 124.982 20.2727C125.264 22.091 125.539 23.9254 125.598 25.7597C125.697 28.8815 125.592 32.0092 125.633 35.1336C125.7 40.3199 127.443 44.828 131.167 48.5147C133.326 50.6532 135.503 52.7766 137.602 54.9735C138.733 56.1572 139.763 57.4463 140.757 58.7506C142.343 60.8344 142.324 63.0632 140.833 65.1308C139.767 66.609 138.436 67.9026 137.172 69.2299C133.66 72.9187 129.434 76.068 127.427 80.9301C126.472 83.2413 125.886 85.8118 125.699 88.3072C125.415 92.0879 125.657 95.9061 125.605 99.7074C125.59 100.827 125.438 101.966 125.176 103.055C124.351 106.489 122.486 106.984 119.406 107.147C116.075 107.324 112.722 107.05 109.391 107.225C105.779 107.414 102.075 107.517 98.8255 109.395C97.0266 110.435 95.272 111.64 93.7429 113.039C91.0559 115.498 88.621 118.23 85.9507 120.708C84.7777 121.797 83.3497 122.664 81.9217 123.41C80.3837 124.214 78.7886 123.801 77.4294 122.854C76.1731 121.979 74.9995 120.971 73.8632 119.94C70.2677 116.679 67.2985 112.755 63.1221 110.099C60.8125 108.63 58.2803 107.867 55.6742 107.565C52.5482 107.203 49.3694 107.303 46.2141 107.185C43.8861 107.097 41.551 107.066 39.2345 106.846C37.5439 106.686 36.2196 105.765 35.7856 104.036C35.4151 102.56 35.0793 101.036 35.0348 99.5241C34.9276 95.8815 35.059 92.2324 34.9852 88.5882C34.8909 83.929 33.4184 79.7497 30.1974 76.3113C27.3066 73.2254 24.2951 70.2526 21.4071 67.1642C19.5466 65.1746 17.8195 62.9534 19.1286 60.0475C19.8241 58.5038 20.9918 57.1134 22.1637 55.8564C24.5062 53.3438 27.0156 50.9877 29.4246 48.536C33.1056 44.7897 35.0037 40.2939 35.0004 35.02C34.9983 31.6868 34.9313 28.3515 35.0288 25.0211C35.0779 23.3443 35.3181 21.6524 35.6753 20.0116C36.0015 18.5132 37.0531 17.4759 38.5952 17.215C40.4073 16.9085 42.2443 16.6488 44.0776 16.59C47.1994 16.4898 50.3289 16.6372 53.4511 16.5448C58.0229 16.4095 62.2092 15.1085 65.6682 11.9762C67.5885 10.2373 69.4322 8.41406 71.327 6.64672C73.5508 4.57267 75.7926 2.51805 77.9196 0.383752C79.2779 0.3125 80.7433 0.3125 82.3543 0.3125ZM81.6976 28.1249C79.0867 28.3318 76.4241 28.2803 73.874 28.7909C63.6572 30.8364 55.9777 36.5104 50.9596 45.6291C47.1209 52.6048 45.9268 60.0677 47.5 67.9189C49.2349 76.577 53.6483 83.5301 60.7804 88.7516C68.3968 94.3277 76.9676 96.1955 86.1368 94.6099C94.7773 93.1157 101.825 88.7171 107.056 81.5466C113.765 72.3514 115.472 62.2898 112.16 51.454C109.983 44.3302 105.734 38.5361 99.6546 34.2489C94.3982 30.5421 88.5118 28.3632 81.6976 28.1249Z" fill="#3ECF8E"/>
<path d="M48.5834 160.312C48.4078 160.124 48.4477 159.844 48.3381 159.76C46.4917 158.358 46.1989 156.465 46.2133 154.264C46.2908 142.349 46.25 130.432 46.25 118.515C46.25 117.947 46.25 117.378 46.25 116.616C50.6794 116.154 55.1477 115.619 59.0147 118.204C61.3234 119.747 63.122 122.057 65.1366 124.036C68.9457 127.778 72.6823 131.685 78.2468 132.693C81.6008 133.3 84.7256 132.377 87.6469 130.645C92.0698 128.021 95.1969 124.004 98.7595 120.454C101.283 117.939 104.106 116.236 107.879 116.532C109.991 116.699 112.126 116.562 114.375 116.562C114.375 117.286 114.375 117.849 114.375 118.413C114.375 130.069 114.318 141.726 114.418 153.381C114.441 156.043 114.207 158.417 112.081 160.244C110.618 160.312 109.049 160.312 107.439 160.227C107.298 160.024 107.221 159.85 107.092 159.795C98.7679 156.247 90.4294 152.733 82.1212 149.148C80.7513 148.557 79.6236 148.706 78.2907 149.284C70.1676 152.802 62.0048 156.229 53.8637 159.707C53.6706 159.789 53.5774 160.105 53.4375 160.312C51.8681 160.312 50.2987 160.312 48.5834 160.312Z" fill="#3ECF8E"/>
<path d="M69.5008 83.6683C63.2421 80.1607 58.7381 75.3155 56.8699 68.3814C54.7617 60.5568 55.9955 53.2999 60.9018 46.7494C64.4921 41.956 69.2495 38.8542 75.0576 37.6694C82.2607 36.2001 89.0059 37.4942 94.9796 42.0087C99.924 45.7455 103.081 50.6648 104.264 56.7161C105.456 62.8099 104.521 68.6591 101.371 74.0611C99.0374 78.0614 95.7427 81.1709 91.69 83.3253C88.7202 84.904 85.5105 85.877 82.0392 85.9762C77.7086 86.0999 73.5459 85.6077 69.5008 83.6683ZM92.4713 53.0113C89.6884 50.716 87.3623 51.281 85.1217 53.754C83.5165 55.5258 81.7536 57.1547 80.0609 58.8471C77.3784 61.5291 77.3734 61.5341 74.6531 58.8649C72.8203 57.0667 70.532 57.1846 68.838 58.5134C66.7844 60.1245 66.2792 62.6497 67.886 64.5415C69.859 66.8645 71.9487 69.1262 74.2328 71.1361C76.3623 73.0098 78.7908 72.7804 80.8327 70.6277C84.4841 66.7781 88.2452 63.0255 92.0969 59.3763C93.7595 57.8011 94.1971 55.0786 92.4713 53.0113Z" fill="#3ECF8E"/>
</g>
<defs>
<clipPath id="clip0_2038_16097">
<rect width="160" height="160" fill="white"/>
</clipPath>
</defs>
</svg>
