<svg width="16" height="16" viewBox="0 0 16 16" fill="none" xmlns="http://www.w3.org/2000/svg">
<g clip-path="url(#clip0_2038_16049)">
<path d="M8.4087 0.0625C8.4365 0.0920982 8.42218 0.135557 8.43645 0.149279C8.85452 0.551254 9.2387 1.00296 9.70904 1.33092C10.014 1.54358 10.4394 1.61023 10.8222 1.67645C11.1355 1.73065 11.4656 1.68747 11.7882 1.6875C12.4316 1.68757 12.6008 1.84677 12.6228 2.50107C12.6347 2.85456 12.6325 3.20898 12.6232 3.56262C12.6096 4.08731 12.8238 4.51587 13.1705 4.88615C13.4194 5.15193 13.6879 5.39915 13.9404 5.66173C14.3566 6.09472 14.3475 6.36222 13.9309 6.79003C13.6207 7.10856 13.3198 7.43623 13.019 7.7637C12.7592 8.04643 12.6478 8.39284 12.6268 8.76767C12.5986 9.27247 12.5953 9.77888 12.5581 10.2829C12.5346 10.6011 12.3496 10.7454 12.0232 10.7496C11.3663 10.7581 10.7 10.6966 10.0698 10.9396C9.86624 11.0181 9.66911 11.1424 9.50444 11.2864C9.22298 11.5324 8.97523 11.8165 8.70293 12.0736C8.23137 12.5189 7.88714 12.5163 7.41497 12.07C7.21839 11.8842 7.01228 11.7036 6.84409 11.4937C6.38184 10.9168 5.74044 10.7912 5.06177 10.7522C4.82316 10.7385 4.5824 10.7381 4.34384 10.7522C3.54892 10.7992 3.58209 10.486 3.50664 9.91338C3.4689 9.62691 3.48182 9.32999 3.50377 9.04021C3.55263 8.39509 3.27726 7.89026 2.85068 7.44594C2.61286 7.19823 2.36278 6.96232 2.12419 6.71531C1.79074 6.37009 1.79345 6.07002 2.12323 5.72131C2.47165 5.3529 2.83379 4.99614 3.16267 4.61102C3.41579 4.31461 3.50315 3.94866 3.50443 3.554C3.5059 3.10076 3.54523 2.64777 3.56044 2.19441C3.57066 1.88975 3.70959 1.70972 4.12564 1.69084C4.4788 1.67482 4.8333 1.68437 5.18715 1.6882C5.77584 1.69457 6.29559 1.50052 6.72578 1.1094C7.07873 0.788509 7.39748 0.430008 7.70945 0.0753381C7.9183 0.0625 8.14911 0.0625 8.4087 0.0625ZM9.6449 3.25399C8.24839 2.52151 6.53879 2.82361 5.51861 4.06838C4.82896 4.90986 4.59106 5.8602 4.81929 6.90936C5.21553 8.73092 7.01264 9.8675 8.82454 9.43106C10.2217 9.09453 11.1592 8.05514 11.3578 6.64293C11.5544 5.24565 10.9308 4.04591 9.6449 3.25399Z" fill="#3ECF8E"/>
<path d="M4.8413 16.0627C4.52016 15.6157 4.63454 15.1135 4.62856 14.6314C4.61659 13.665 4.62501 12.6983 4.62501 11.7063C5.27612 11.5852 5.85819 11.6203 6.32517 12.1624C6.55525 12.4296 6.7936 12.7061 7.07886 12.9061C7.91651 13.4935 8.40724 13.4457 9.23304 12.7302C9.50748 12.4924 9.73029 12.1924 10.015 11.97C10.1955 11.829 10.4396 11.7385 10.668 11.6983C10.9286 11.6525 11.2035 11.6877 11.5 11.6877C11.5 12.3967 11.5 13.0815 11.5 13.7663C11.5 14.3073 11.4891 14.8485 11.5048 15.389C11.5121 15.644 11.4561 15.8565 11.2909 16.0468C11.0817 16.0627 10.8509 16.0627 10.6132 16.0475C10.5321 15.9806 10.4642 15.9138 10.3826 15.8795C9.77311 15.6227 9.15975 15.3751 8.5502 15.1184C8.32787 15.0248 8.13316 14.858 7.85877 14.9787C7.16909 15.2819 6.47178 15.5678 5.78136 15.8694C5.69646 15.9065 5.63489 15.997 5.56251 16.0627C5.3317 16.0627 5.1009 16.0627 4.8413 16.0627Z" fill="#3ECF8E"/>
<path d="M5.81073 7.17863C5.21764 5.64897 5.99848 4.09184 7.55877 3.77787C9.20387 3.44684 10.4662 4.66625 10.5113 6.12088C10.5487 7.32397 9.68606 8.33885 8.73486 8.55616C7.47398 8.84422 6.43582 8.41567 5.81073 7.17863ZM8.21877 5.7502C8.0737 5.90906 7.92862 6.06792 7.73413 6.2809C7.62447 6.13601 7.56158 6.03991 7.48578 5.9554C7.31269 5.7624 7.12197 5.73885 6.92286 5.91879C6.70243 6.118 6.68128 6.3095 6.87915 6.5295C7.06638 6.73768 7.2644 6.93828 7.47433 7.12331C7.66706 7.29319 7.86166 7.31403 8.06493 7.09918C8.44319 6.69938 8.84127 6.31838 9.22947 5.92793C9.42208 5.73421 9.42735 5.52805 9.24181 5.33848C9.05125 5.14377 8.84829 5.13416 8.6476 5.32326C8.51158 5.45143 8.38233 5.58677 8.21877 5.7502Z" fill="#3ECF8E"/>
</g>
<defs>
<clipPath id="clip0_2038_16049">
<rect width="16" height="16" fill="white"/>
</clipPath>
</defs>
</svg>
