<svg width="32" height="32" viewBox="0 0 32 32" fill="none" xmlns="http://www.w3.org/2000/svg">
<g clip-path="url(#clip0_2038_16057)">
<path d="M16.8174 0.125C16.873 0.184196 16.8444 0.271114 16.8729 0.298559C17.709 1.10251 18.4774 2.00591 19.4181 2.66183C20.0281 3.08717 20.8787 3.22045 21.6443 3.3529C22.2709 3.46129 22.9312 3.37494 23.5765 3.37501C24.8632 3.37514 25.2016 3.69354 25.2456 5.00215C25.2694 5.70913 25.2649 6.41795 25.2465 7.12525C25.2191 8.17461 25.6477 9.03173 26.3411 9.7723C26.8388 10.3039 27.3759 10.7983 27.8807 11.3235C28.7132 12.1894 28.695 12.7244 27.8618 13.5801C27.2414 14.2171 26.6396 14.8725 26.0379 15.5274C25.5185 16.0929 25.2956 16.7857 25.2537 17.5353C25.1972 18.5449 25.1905 19.5578 25.1162 20.5658C25.0693 21.2021 24.6992 21.4907 24.0464 21.4991C22.7325 21.5161 21.3999 21.3931 20.1397 21.8791C19.7325 22.0361 19.3382 22.2849 19.0089 22.5727C18.446 23.0648 17.9505 23.633 17.4059 24.1472C16.4627 25.0378 15.7743 25.0325 14.8299 24.14C14.4368 23.7685 14.0246 23.4072 13.6882 22.9874C12.7637 21.8336 11.4809 21.5825 10.1235 21.5044C9.64632 21.477 9.1648 21.4762 8.68768 21.5044C7.09784 21.5983 7.16418 20.972 7.01329 19.8268C6.9378 19.2538 6.96364 18.66 7.00754 18.0804C7.10526 16.7902 6.55453 15.7805 5.70136 14.8919C5.22572 14.3965 4.72555 13.9246 4.24839 13.4306C3.58148 12.7402 3.5869 12.14 4.24647 11.4426C4.9433 10.7058 5.66757 9.99229 6.32534 9.22204C6.83157 8.62922 7.00631 7.89732 7.00887 7.10801C7.01181 6.20153 7.09046 5.29553 7.12087 4.38881C7.14131 3.77951 7.41918 3.41945 8.25128 3.38169C8.95761 3.34964 9.6666 3.36873 10.3743 3.37639C11.5517 3.38914 12.5912 3.00104 13.4516 2.21881C14.1575 1.57702 14.795 0.860016 15.4189 0.150676C15.8366 0.125 16.2982 0.125 16.8174 0.125ZM19.2898 6.50798C16.4968 5.04301 13.0776 5.64722 11.0372 8.13677C9.65792 9.81972 9.18213 11.7204 9.63857 13.8187C10.4311 17.4618 14.0253 19.735 17.6491 18.8621C20.4434 18.1891 22.3184 16.1103 22.7157 13.2859C23.1088 10.4913 21.8617 8.09182 19.2898 6.50798Z" fill="#3ECF8E"/>
<path d="M9.6826 32.125C9.04032 31.231 9.26907 30.2264 9.25713 29.2622C9.23319 27.3294 9.25002 25.3961 9.25002 23.4121C10.5522 23.17 11.7164 23.24 12.6503 24.3244C13.1105 24.8587 13.5872 25.4117 14.1577 25.8117C15.833 26.9865 16.8145 26.8909 18.4661 25.4598C19.015 24.9842 19.4606 24.3844 20.0301 23.9395C20.3909 23.6576 20.8793 23.4765 21.3361 23.3962C21.8573 23.3045 22.407 23.375 22.9999 23.375C22.9999 24.793 22.9999 26.1626 22.9999 27.5322C22.9999 28.6141 22.9782 29.6965 23.0095 30.7775C23.0243 31.2875 22.9123 31.7124 22.5819 32.0932C22.1634 32.125 21.7018 32.125 21.2264 32.0946C21.0641 31.9606 20.9283 31.8271 20.7652 31.7584C19.5462 31.2448 18.3195 30.7496 17.1004 30.2364C16.6557 30.0492 16.2663 29.7155 15.7175 29.9568C14.3382 30.5633 12.9436 31.1351 11.5627 31.7383C11.3929 31.8125 11.2698 31.9935 11.125 32.125C10.6634 32.125 10.2018 32.125 9.6826 32.125Z" fill="#3ECF8E"/>
<path d="M11.6215 14.3568C10.4353 11.2975 11.997 8.18319 15.1175 7.55526C18.4077 6.89319 20.9323 9.33201 21.0227 12.2413C21.0974 14.6475 19.3721 16.6772 17.4697 17.1118C14.948 17.688 12.8716 16.8309 11.6215 14.3568ZM16.4375 11.4999C16.1474 11.8176 15.8572 12.1354 15.4683 12.5613C15.2489 12.2715 15.1232 12.0793 14.9716 11.9103C14.6254 11.5243 14.2439 11.4772 13.8457 11.8371C13.4049 12.2355 13.3626 12.6185 13.7583 13.0585C14.1328 13.4749 14.5288 13.8761 14.9487 14.2461C15.3341 14.5859 15.7233 14.6276 16.1299 14.1979C16.8864 13.3983 17.6825 12.6363 18.4589 11.8554C18.8442 11.4679 18.8547 11.0556 18.4836 10.6765C18.1025 10.2871 17.6966 10.2678 17.2952 10.646C17.0232 10.9024 16.7647 11.1731 16.4375 11.4999Z" fill="#3ECF8E"/>
</g>
<defs>
<clipPath id="clip0_2038_16057">
<rect width="32" height="32" fill="white"/>
</clipPath>
</defs>
</svg>
