<svg width="144" height="144" viewBox="0 0 144 144" fill="none" xmlns="http://www.w3.org/2000/svg">
<g clip-path="url(#clip0_2038_16081)">
<path d="M75.6784 0.5625C75.9286 0.828884 75.7997 1.22001 75.9281 1.34351C79.6908 4.96129 83.1484 9.02661 87.3814 11.9783C90.1263 13.8923 93.9543 14.492 97.3995 15.088C100.219 15.5758 103.19 15.1872 106.094 15.1875C111.885 15.1881 113.407 16.6209 113.605 22.5097C113.712 25.6911 113.692 28.8808 113.609 32.0636C113.486 36.7857 115.415 40.6428 118.535 43.9754C120.775 46.3673 123.192 48.5924 125.463 50.9555C129.209 54.8525 129.127 57.2599 125.378 61.1102C122.586 63.977 119.878 66.9261 117.171 69.8733C114.833 72.4178 113.83 75.5356 113.642 78.909C113.388 83.4523 113.357 88.0099 113.023 92.546C112.812 95.4095 111.147 96.7082 108.209 96.7461C102.296 96.8225 96.2998 96.2691 90.6286 98.456C88.7962 99.1626 87.022 100.282 85.54 101.577C83.0068 103.792 80.7772 106.349 78.3265 108.663C74.0824 112.67 70.9844 112.646 66.7347 108.63C64.9656 106.958 63.1106 105.332 61.5969 103.443C57.4366 98.251 51.664 97.1211 45.556 96.77C43.4085 96.6466 41.2417 96.6428 39.0946 96.7697C31.9404 97.1925 32.2389 94.374 31.5598 89.2204C31.2201 86.6422 31.3364 83.9699 31.534 81.3619C31.9737 75.5558 29.4954 71.0124 25.6562 67.0135C23.5158 64.7841 21.265 62.6609 19.1178 60.4378C16.1167 57.3308 16.1411 54.6302 19.1092 51.4918C22.2449 48.1761 25.5041 44.9653 28.4641 41.4992C30.7421 38.8315 31.5284 35.5379 31.54 31.986C31.5532 27.9069 31.9071 23.8299 32.044 19.7496C32.136 17.0078 33.3864 15.3875 37.1308 15.2176C40.3093 15.0734 43.4998 15.1593 46.6844 15.1938C51.9826 15.2511 56.6604 13.5047 60.5321 9.98464C63.7086 7.09658 66.5774 3.87007 69.3851 0.678043C71.2648 0.5625 73.342 0.5625 75.6784 0.5625ZM86.8042 29.2859C74.2356 22.6935 58.8491 25.4125 49.6675 36.6155C43.4607 44.1887 41.3196 52.7418 43.3736 62.1843C46.9398 78.5783 63.1138 88.8075 79.421 84.8796C91.9955 81.8507 100.433 72.4963 102.221 59.7864C103.99 47.2108 98.3775 36.4132 86.8042 29.2859Z" fill="#3ECF8E"/>
<path d="M43.5716 144.563C40.6814 140.54 41.7108 136.019 41.657 131.68C41.5493 122.983 41.625 114.283 41.625 105.355C47.485 104.265 52.7236 104.58 56.9264 109.46C58.9972 111.864 61.1424 114.353 63.7097 116.153C71.2486 121.44 75.6651 121.009 83.0973 114.57C85.5672 112.429 87.5726 109.73 90.1353 107.728C91.7592 106.459 93.9566 105.645 96.0123 105.283C98.3578 104.871 100.832 105.188 103.5 105.188C103.5 111.569 103.5 117.732 103.5 123.895C103.5 128.763 103.402 133.635 103.543 138.499C103.609 140.794 103.105 142.706 101.618 144.419C99.7353 144.563 97.658 144.563 95.5186 144.426C94.7884 143.823 94.1773 143.222 93.4434 142.913C87.958 140.602 82.4377 138.374 76.9517 136.064C74.9508 135.221 73.1983 133.72 70.7289 134.806C64.5217 137.535 58.2459 140.108 52.0322 142.823C51.2681 143.156 50.7139 143.971 50.0625 144.563C47.9853 144.563 45.908 144.563 43.5716 144.563Z" fill="#3ECF8E"/>
<path d="M52.2965 64.6057C46.9586 50.8388 53.9862 36.8246 68.0288 33.9989C82.8347 31.0196 94.1953 41.9943 94.6019 55.0859C94.9381 65.9138 87.1744 75.0477 78.6136 77.0035C67.2657 79.5961 57.9223 75.7391 52.2965 64.6057ZM73.9688 51.7498C72.6632 53.1796 71.3575 54.6093 69.6071 56.5262C68.6201 55.2221 68.0541 54.3573 67.3719 53.5966C65.8141 51.8597 64.0976 51.6477 62.3056 53.2671C60.3218 55.06 60.1315 56.7836 61.9122 58.7636C63.5973 60.6372 65.3795 62.4426 67.2689 64.1079C69.0034 65.6367 70.7548 65.8243 72.5843 63.8907C75.9886 60.2925 79.5714 56.8635 83.0652 53.3494C84.7986 51.6059 84.846 49.7505 83.1762 48.0444C81.4612 46.292 79.6345 46.2055 77.8283 47.9074C76.6041 49.0609 75.4409 50.279 73.9688 51.7498Z" fill="#3ECF8E"/>
</g>
<defs>
<clipPath id="clip0_2038_16081">
<rect width="144" height="144" fill="white"/>
</clipPath>
</defs>
</svg>
