<svg width="96" height="96" viewBox="0 0 96 96" fill="none" xmlns="http://www.w3.org/2000/svg">
<g clip-path="url(#clip0_2038_16073)">
<path d="M50.4523 0.375C50.6191 0.552589 50.5332 0.813342 50.6188 0.895677C53.1272 3.30753 55.4323 6.01774 58.2543 7.9855C60.0842 9.26151 62.6362 9.66136 64.933 10.0587C66.8128 10.3839 68.7935 10.1248 70.7295 10.125C74.5898 10.1254 75.6048 11.0806 75.7368 15.0064C75.8081 17.1274 75.7948 19.2539 75.7395 21.3757C75.6574 24.5238 76.9431 27.0952 79.0233 29.3169C80.5164 30.9116 82.1277 32.3949 83.6422 33.9704C86.1396 36.5683 86.0849 38.1733 83.5854 40.7402C81.7243 42.6514 79.9188 44.6174 78.1138 46.5822C76.5555 48.2786 75.8868 50.357 75.7611 52.606C75.5917 55.6348 75.5716 58.6733 75.3487 61.6973C75.208 63.6064 74.0978 64.4721 72.1393 64.4974C68.1976 64.5483 64.1999 64.1794 60.4191 65.6373C59.1975 66.1084 58.0147 66.8546 57.0267 67.7182C55.3379 69.1944 53.8515 70.8991 52.2177 72.4417C49.3883 75.1133 47.3229 75.0975 44.4898 72.42C43.3104 71.3054 42.0737 70.2215 41.0646 68.9621C38.2911 65.5007 34.4427 64.7474 30.3707 64.5133C28.939 64.4311 27.4945 64.4285 26.0631 64.5131C21.2936 64.795 21.4926 62.916 21.0399 59.4803C20.8134 57.7615 20.891 55.9799 21.0227 54.2413C21.3159 50.3705 19.6636 47.3416 17.1042 44.6757C15.6772 43.1894 14.1767 41.7739 12.7452 40.2919C10.7445 38.2205 10.7608 36.4201 12.7395 34.3279C14.83 32.1174 17.0028 29.9769 18.9761 27.6661C20.4948 25.8877 21.019 23.6919 21.0267 21.324C21.0355 18.6046 21.2714 15.8866 21.3627 13.1664C21.424 11.3385 22.2576 10.2583 24.7539 10.1451C26.8729 10.0489 28.9999 10.1062 31.123 10.1292C34.6551 10.1674 37.7736 9.00313 40.3547 6.65643C42.4724 4.73105 44.385 2.58005 46.2567 0.452029C47.5099 0.375 48.8947 0.375 50.4523 0.375ZM57.8695 19.5239C49.4904 15.129 39.2328 16.9417 33.1117 24.4103C28.9738 29.4592 27.5464 35.1612 28.9158 41.4562C31.2932 52.3855 42.0759 59.205 52.9473 56.5864C61.3304 54.5672 66.9552 48.3309 68.1471 39.8576C69.3264 31.4739 65.585 24.2755 57.8695 19.5239Z" fill="#3ECF8E"/>
<path d="M29.0477 96.375C27.1209 93.693 27.8072 90.6793 27.7713 87.7867C27.6995 81.9883 27.75 76.1884 27.75 70.2364C31.6566 69.51 35.1491 69.7201 37.9509 72.9732C39.3315 74.576 40.7616 76.235 42.4731 77.4352C47.499 80.9595 50.4434 80.6728 55.3982 76.3795C57.0448 74.9527 58.3817 73.1532 60.0902 71.8185C61.1728 70.9728 62.6377 70.4296 64.0082 70.1886C65.5718 69.9136 67.221 70.125 68.9998 70.125C68.9998 74.379 68.9998 78.4878 68.9998 82.5966C68.9998 85.8422 68.9344 89.0896 69.0284 92.3325C69.0728 93.8626 68.7368 95.1373 67.7456 96.2795C66.4902 96.375 65.1053 96.375 63.679 96.2837C63.1922 95.8819 62.7848 95.4814 62.2956 95.2752C58.6386 93.7345 54.9585 92.2489 51.3011 90.7091C49.9672 90.1475 48.7989 89.1466 47.1526 89.8704C43.0145 91.6899 38.8306 93.4052 34.6881 95.2149C34.1787 95.4375 33.8093 95.9805 33.375 96.375C31.9902 96.375 30.6053 96.375 29.0477 96.375Z" fill="#3ECF8E"/>
<path d="M34.8643 43.0708C31.3058 33.8929 35.9908 24.5501 45.3525 22.6663C55.2232 20.6801 62.7969 27.9965 63.0679 36.7243C63.2921 43.9429 58.1163 50.0321 52.4091 51.336C44.8438 53.0644 38.6148 50.4931 34.8643 43.0708ZM49.3126 34.5002C48.4421 35.4534 47.5717 36.4066 46.4047 37.6844C45.7467 36.8151 45.3694 36.2385 44.9146 35.7314C43.8761 34.5734 42.7317 34.4321 41.5371 35.5118C40.2145 36.707 40.0876 37.856 41.2748 39.176C42.3982 40.4251 43.5863 41.6287 44.8459 42.7389C46.0023 43.7581 47.1699 43.8832 48.3895 42.5941C50.6591 40.1953 53.0476 37.9093 55.3768 35.5666C56.5324 34.4043 56.564 33.1673 55.4508 32.0299C54.3074 30.8617 53.0897 30.804 51.8855 31.9386C51.0694 32.7076 50.2939 33.5197 49.3126 34.5002Z" fill="#3ECF8E"/>
</g>
<defs>
<clipPath id="clip0_2038_16073">
<rect width="96" height="96" fill="white"/>
</clipPath>
</defs>
</svg>
