<svg width="48" height="48" viewBox="0 0 48 48" fill="none" xmlns="http://www.w3.org/2000/svg">
<g clip-path="url(#clip0_2038_16065)">
<path d="M25.2261 0.1875C25.3095 0.276295 25.2665 0.406671 25.3094 0.447838C26.5636 1.65376 27.7161 3.00887 29.1271 3.99275C30.0421 4.63075 31.3181 4.83068 32.4665 5.02935C33.4064 5.19194 34.3967 5.06241 35.3647 5.06251C37.2949 5.06271 37.8024 5.54031 37.8684 7.50322C37.904 8.56369 37.8974 9.62693 37.8697 10.6879C37.8287 12.2619 38.4715 13.5476 39.5116 14.6585C40.2582 15.4558 41.0638 16.1975 41.8211 16.9852C43.0698 18.2842 43.0424 19.0866 41.7927 20.3701C40.8621 21.3257 39.9594 22.3087 39.0569 23.2911C38.2777 24.1393 37.9434 25.1785 37.8805 26.303C37.7958 27.8174 37.7858 29.3366 37.6743 30.8487C37.6039 31.8032 37.0489 32.2361 36.0696 32.2487C34.0988 32.2742 32.0999 32.0897 30.2095 32.8187C29.5987 33.0542 29.0073 33.4273 28.5133 33.8591C27.6689 34.5972 26.9257 35.4495 26.1088 36.2209C24.6941 37.5566 23.6614 37.5488 22.2449 36.21C21.6552 35.6527 21.0368 35.1107 20.5323 34.481C19.1455 32.7503 17.2213 32.3737 15.1853 32.2567C14.4695 32.2155 13.7472 32.2143 13.0315 32.2566C10.6468 32.3975 10.7463 31.458 10.5199 29.7401C10.4067 28.8807 10.4455 27.99 10.5113 27.1206C10.6579 25.1853 9.83179 23.6708 8.55205 22.3378C7.83859 21.5947 7.08833 20.887 6.37258 20.1459C5.37223 19.1103 5.38035 18.2101 6.3697 17.1639C7.41495 16.0587 8.50136 14.9884 9.488 13.8331C10.2474 12.9438 10.5095 11.846 10.5133 10.662C10.5177 9.30229 10.6357 7.9433 10.6813 6.58322C10.712 5.66926 11.1288 5.12917 12.3769 5.07253C13.4364 5.02446 14.4999 5.0531 15.5614 5.06459C17.3275 5.08371 18.8868 4.50157 20.1773 3.32821C21.2362 2.36553 22.1925 1.29002 23.1283 0.226014C23.7549 0.1875 24.4473 0.1875 25.2261 0.1875ZM28.9347 9.76197C24.7452 7.56452 19.6164 8.47084 16.5558 12.2052C14.4869 14.7296 13.7732 17.5806 14.4579 20.7281C15.6466 26.1928 21.0379 29.6025 26.4736 28.2932C30.6651 27.2836 33.4776 24.1654 34.0735 19.9288C34.6632 15.7369 32.7925 12.1377 28.9347 9.76197Z" fill="#3ECF8E"/>
<path d="M14.5239 48.1877C13.5605 46.8467 13.9036 45.3399 13.8857 43.8936C13.8498 40.9944 13.875 38.0944 13.875 35.1185C15.8284 34.7553 17.5746 34.8603 18.9755 36.4868C19.6658 37.2882 20.3808 38.1177 21.2366 38.7178C23.7495 40.48 25.2217 40.3367 27.6991 38.19C28.5224 37.4766 29.1909 36.5769 30.0451 35.9095C30.5864 35.4866 31.3189 35.2151 32.0041 35.0945C32.7859 34.957 33.6105 35.0627 34.4999 35.0627C34.4999 37.1897 34.4999 39.2441 34.4999 41.2985C34.4999 42.9213 34.4673 44.5451 34.5143 46.1665C34.5364 46.9315 34.3684 47.5689 33.8728 48.14C33.2451 48.1877 32.5527 48.1877 31.8395 48.1421C31.5962 47.9412 31.3925 47.7409 31.1478 47.6379C29.3193 46.8675 27.4793 46.1247 25.6506 45.3548C24.9836 45.074 24.3995 44.5735 23.5763 44.9355C21.5073 45.8452 19.4153 46.7028 17.3441 47.6077C17.0894 47.719 16.9047 47.9905 16.6875 48.1877C15.9951 48.1877 15.3027 48.1877 14.5239 48.1877Z" fill="#3ECF8E"/>
<path d="M17.4322 21.5354C15.6529 16.9464 17.9954 12.275 22.6763 11.3331C27.6116 10.34 31.3984 13.9983 31.534 18.3621C31.646 21.9714 29.0581 25.0161 26.2045 25.668C22.4219 26.5322 19.3074 25.2465 17.4322 21.5354ZM24.6563 17.2501C24.2211 17.7267 23.7858 18.2033 23.2024 18.8422C22.8734 18.4075 22.6847 18.1193 22.4573 17.8657C21.938 17.2867 21.3659 17.2161 20.7685 17.7559C20.1073 18.3535 20.0438 18.928 20.6374 19.588C21.1991 20.2126 21.7932 20.8144 22.423 21.3695C23.0011 21.8791 23.5849 21.9416 24.1948 21.2971C25.3295 20.0977 26.5238 18.9547 27.6884 17.7833C28.2662 17.2021 28.282 16.5837 27.7254 16.015C27.1537 15.4308 26.5448 15.402 25.9428 15.9693C25.5347 16.3538 25.147 16.7598 24.6563 17.2501Z" fill="#3ECF8E"/>
</g>
<defs>
<clipPath id="clip0_2038_16065">
<rect width="48" height="48" fill="white"/>
</clipPath>
</defs>
</svg>
