<svg width="246" height="50" viewBox="0 0 246 50" fill="none" xmlns="http://www.w3.org/2000/svg">
<g clip-path="url(#clip0_2038_16029)">
<path d="M26.2772 0.195312C26.3641 0.287807 26.3193 0.423616 26.3639 0.466498C27.6704 1.72267 28.8709 3.13424 30.3407 4.15912C31.2938 4.8237 32.623 5.03196 33.8193 5.2389C34.7983 5.40827 35.8299 5.27335 36.8383 5.27345C38.8488 5.27365 39.3775 5.77116 39.4462 7.81585C39.4834 8.92051 39.4765 10.028 39.4476 11.1332C39.4049 12.7728 40.0745 14.1121 41.1579 15.2692C41.9356 16.0998 42.7748 16.8724 43.5636 17.6929C44.8643 19.046 44.8359 19.8819 43.534 21.2188C42.5647 22.2142 41.6243 23.2382 40.6842 24.2616C39.8726 25.1451 39.5244 26.2276 39.4589 27.399C39.3707 28.9765 39.3602 30.559 39.2441 32.134C39.1708 33.1283 38.5926 33.5792 37.5725 33.5924C35.5196 33.6189 33.4374 33.4268 31.4683 34.1861C30.832 34.4315 30.216 34.8201 29.7014 35.2699C28.8218 36.0387 28.0476 36.9266 27.1967 37.7301C25.723 39.1215 24.6473 39.1133 23.1718 37.7188C22.5575 37.1382 21.9134 36.5737 21.3878 35.9177C19.9432 34.1149 17.9389 33.7226 15.818 33.6007C15.0724 33.5578 14.32 33.5565 13.5745 33.6006C11.0904 33.7474 11.194 32.7687 10.9583 30.9793C10.8403 30.0841 10.8807 29.1562 10.9493 28.2507C11.102 26.2347 10.2415 24.6571 8.90838 23.2686C8.16519 22.4945 7.38367 21.7572 6.63811 20.9854C5.59607 19.9065 5.60453 18.9688 6.63511 17.8791C7.72391 16.7278 8.85558 15.6129 9.88334 14.4094C10.6743 13.4832 10.9474 12.3396 10.9514 11.1063C10.9559 9.68988 11.0788 8.27427 11.1264 6.85752C11.1583 5.90548 11.5925 5.34289 12.8926 5.28389C13.9963 5.23381 15.1041 5.26364 16.2098 5.27561C18.0495 5.29553 19.6737 4.68913 21.0181 3.46689C22.121 2.46409 23.1171 1.34377 24.092 0.235432C24.7447 0.195312 25.466 0.195312 26.2772 0.195312ZM30.1403 10.1687C25.7762 7.8797 20.4337 8.82379 17.2457 12.7137C15.0905 15.3433 14.3471 18.3131 15.0603 21.5918C16.2985 27.2841 21.9145 30.8359 27.5767 29.4721C31.9429 28.4204 34.8725 25.1723 35.4932 20.7592C36.1075 16.3927 34.1588 12.6435 30.1403 10.1687Z" fill="#3ECF8E"/>
<path d="M15.129 50.1955C14.1255 48.7986 14.4829 47.229 14.4642 45.7225C14.4268 42.7025 14.4531 39.6817 14.4531 36.5817C16.4878 36.2034 18.3068 36.3128 19.7661 38.0071C20.4851 38.8419 21.23 39.7059 22.1214 40.331C24.7391 42.1666 26.2726 42.0173 28.8532 39.7812C29.7108 39.0381 30.4071 38.1009 31.297 37.4057C31.8608 36.9652 32.6238 36.6823 33.3376 36.5568C34.152 36.4135 35.011 36.5236 35.9374 36.5236C35.9374 38.7393 35.9374 40.8793 35.9374 43.0193C35.9374 44.7097 35.9034 46.4011 35.9523 48.0901C35.9754 48.887 35.8004 49.5509 35.2842 50.1458C34.6303 50.1955 33.909 50.1955 33.1662 50.148C32.9126 49.9387 32.7004 49.7301 32.4456 49.6227C30.5409 48.8203 28.6242 48.0465 26.7193 47.2445C26.0246 46.952 25.4161 46.4307 24.5586 46.8077C22.4034 47.7554 20.2243 48.6488 18.0667 49.5913C17.8014 49.7072 17.609 49.99 17.3828 50.1955C16.6615 50.1955 15.9403 50.1955 15.129 50.1955Z" fill="#3ECF8E"/>
<path d="M18.1585 22.4327C16.3051 17.6525 18.7452 12.7864 23.6211 11.8053C28.7621 10.7708 32.7067 14.5815 32.8479 19.1272C32.9646 22.8869 30.2689 26.0584 27.2964 26.7375C23.3561 27.6377 20.1119 26.2984 18.1585 22.4327ZM25.6836 17.9688C25.2303 18.4653 24.7769 18.9617 24.1691 19.6273C23.8264 19.1745 23.6299 18.8742 23.393 18.6101C22.8521 18.007 22.2561 17.9333 21.6339 18.4957C20.9451 19.1182 20.879 19.7166 21.4973 20.4041C22.0824 21.0547 22.7012 21.6816 23.3573 22.2598C23.9595 22.7907 24.5677 22.8558 25.2029 22.1844C26.3849 20.935 27.629 19.7444 28.8421 18.5242C29.444 17.9189 29.4604 17.2746 28.8806 16.6822C28.2851 16.0737 27.6509 16.0437 27.0237 16.6346C26.5987 17.0352 26.1948 17.4581 25.6836 17.9688Z" fill="#3ECF8E"/>
</g>
<path d="M224.407 16.3599H231.779L235.085 21.5279L238.353 16.3599H245.725L238.961 25.7839L245.725 35.3599H238.353L235.085 30.1919L231.779 35.3599H224.407L231.171 25.7839L224.407 16.3599Z" fill="white"/>
<path d="M212.143 16.36H218.375V35.36H212.143V16.36ZM215.259 14.954C214.094 14.954 213.156 14.6247 212.447 13.966C211.738 13.282 211.383 12.4587 211.383 11.496C211.383 10.508 211.738 9.68467 212.447 9.026C213.156 8.342 214.094 8 215.259 8C216.399 8 217.324 8.342 218.033 9.026C218.768 9.68467 219.135 10.508 219.135 11.496C219.135 12.4587 218.768 13.282 218.033 13.966C217.324 14.6247 216.399 14.954 215.259 14.954Z" fill="white"/>
<path d="M195.959 16.36V11.04H202.305V16.36H205.915V21.908H202.305V27.836C202.305 28.5454 202.495 29.052 202.875 29.356C203.255 29.66 203.723 29.8247 204.281 29.85C204.838 29.85 205.395 29.7867 205.953 29.66V35.132C204.534 35.3854 203.217 35.4614 202.001 35.36C200.785 35.2587 199.721 34.942 198.809 34.41C197.922 33.8527 197.225 33.042 196.719 31.978C196.212 30.8887 195.959 29.508 195.959 27.836V21.908H193.261V16.36H195.959Z" fill="white"/>
<path d="M170.178 16.3598H175.802L176.258 18.5257C176.866 17.8164 177.588 17.2338 178.424 16.7778C179.286 16.3217 180.223 16.0938 181.236 16.0938C182.731 16.0938 183.985 16.4231 184.998 17.0817C186.012 17.7151 186.772 18.6397 187.278 19.8557C187.81 21.0717 188.076 22.5411 188.076 24.2638V35.3598H181.844V25.0238C181.844 23.9344 181.616 23.1111 181.16 22.5538C180.704 21.9711 180.033 21.6798 179.146 21.6798C178.234 21.6798 177.55 21.9711 177.094 22.5538C176.638 23.1111 176.41 23.9471 176.41 25.0618V35.3598H170.178V16.3598Z" fill="white"/>
<path d="M155.334 35.6257C153.358 35.6257 151.635 35.2204 150.166 34.4097C148.722 33.5737 147.595 32.4084 146.784 30.9137C145.999 29.4191 145.606 27.6711 145.606 25.6698C145.606 23.7951 145.999 22.1357 146.784 20.6917C147.595 19.2477 148.709 18.1204 150.128 17.3097C151.547 16.4991 153.181 16.0938 155.03 16.0938C156.955 16.0938 158.627 16.4864 160.046 17.2717C161.465 18.0317 162.567 19.1211 163.352 20.5398C164.137 21.9584 164.53 23.6177 164.53 25.5177C164.53 25.7964 164.517 26.1004 164.492 26.4298C164.467 26.7591 164.429 27.1264 164.378 27.5317H152.256C152.383 28.1144 152.598 28.6211 152.902 29.0518C153.231 29.4571 153.624 29.7738 154.08 30.0018C154.561 30.2044 155.093 30.3057 155.676 30.3057C156.335 30.3057 156.917 30.1664 157.424 29.8878C157.931 29.6091 158.336 29.2038 158.64 28.6718L164.264 30.0778C163.504 31.8764 162.351 33.2571 160.806 34.2198C159.286 35.1571 157.462 35.6257 155.334 35.6257ZM157.728 23.8838C157.703 23.3518 157.563 22.8831 157.31 22.4778C157.082 22.0724 156.778 21.7558 156.398 21.5278C156.018 21.2997 155.587 21.1984 155.106 21.2238C154.625 21.2491 154.181 21.3758 153.776 21.6038C153.396 21.8318 153.067 22.1484 152.788 22.5538C152.535 22.9338 152.383 23.3771 152.332 23.8838H157.728Z" fill="white"/>
<path d="M121.849 8H128.081V18.488C128.638 17.804 129.322 17.234 130.133 16.778C130.969 16.322 131.931 16.094 133.021 16.094C134.49 16.094 135.757 16.4233 136.821 17.082C137.885 17.7153 138.695 18.64 139.253 19.856C139.835 21.072 140.127 22.5413 140.127 24.264V35.36H133.515V25.024C133.515 23.9347 133.287 23.1113 132.831 22.554C132.375 21.9713 131.703 21.68 130.817 21.68C129.905 21.68 129.221 22.0347 128.765 22.744C128.309 23.4533 128.081 24.3653 128.081 25.48V35.36H121.849V8Z" fill="white"/>
<path d="M106.424 16.36V11.04H112.77V16.36H116.38V21.908H112.77V27.836C112.77 28.5454 112.96 29.052 113.34 29.356C113.72 29.66 114.189 29.8247 114.746 29.85C115.303 29.85 115.861 29.7867 116.418 29.66V35.132C114.999 35.3854 113.682 35.4614 112.466 35.36C111.25 35.2587 110.186 34.942 109.274 34.41C108.387 33.8527 107.691 33.042 107.184 31.978C106.677 30.8887 106.424 29.508 106.424 27.836V21.908H103.726V16.36H106.424Z" fill="white"/>
<path d="M98.3526 35.3599H92.6906L92.2346 33.1559C91.6266 33.8905 90.9046 34.4859 90.0686 34.9419C89.2326 35.3979 88.308 35.6259 87.2946 35.6259C85.9013 35.6259 84.6853 35.3092 83.6466 34.6759C82.6333 34.0172 81.8353 33.0799 81.2526 31.8639C80.6953 30.6225 80.4166 29.1405 80.4166 27.4179V16.3599H86.6486V26.6959C86.6486 27.7852 86.8766 28.6212 87.3326 29.2039C87.7886 29.7612 88.4726 30.0399 89.3846 30.0399C90.2713 30.0399 90.9426 29.7485 91.3986 29.1659C91.88 28.5579 92.1206 27.7092 92.1206 26.6199V16.3599H98.3526V35.3599Z" fill="white"/>
<path d="M68.552 35.3598L68.134 33.0038C67.45 33.7891 66.7407 34.4224 66.006 34.9037C65.2967 35.3851 64.334 35.6257 63.118 35.6257C62.0033 35.6257 60.9773 35.4231 60.04 35.0178C59.128 34.5871 58.3933 33.9664 57.836 33.1558C57.2787 32.3451 57 31.3571 57 30.1917C57 28.6211 57.5573 27.3291 58.672 26.3158C59.7867 25.3024 61.5473 24.6564 63.954 24.3778L68.134 23.9217V22.8197C68.134 22.4651 67.9567 22.1104 67.602 21.7558C67.2473 21.3758 66.7027 21.1857 65.968 21.1857C65.3093 21.1857 64.7393 21.3631 64.258 21.7178C63.7767 22.0724 63.4473 22.5664 63.27 23.1997L57.988 21.2998C58.5707 19.5771 59.5587 18.2851 60.952 17.4237C62.3453 16.5371 64.0933 16.0938 66.196 16.0938C68.856 16.0938 70.8827 16.7524 72.276 18.0697C73.6693 19.3871 74.366 21.1984 74.366 23.5037V35.3598H68.552ZM68.134 27.4178L65.17 27.7598C64.5873 27.8358 64.144 28.0257 63.84 28.3298C63.536 28.6337 63.384 29.0011 63.384 29.4318C63.384 29.8624 63.5613 30.2171 63.916 30.4958C64.296 30.7744 64.8153 30.9137 65.474 30.9137C66.006 30.9137 66.462 30.7998 66.842 30.5718C67.2473 30.3184 67.564 29.9637 67.792 29.5077C68.02 29.0517 68.134 28.4818 68.134 27.7978V27.4178Z" fill="white"/>
<defs>
<clipPath id="clip0_2038_16029">
<rect width="50" height="50" fill="white"/>
</clipPath>
</defs>
</svg>
